<svg width="65" height="65" viewBox="0 0 65 65" fill="none" xmlns="http://www.w3.org/2000/svg">
<path d="M32.5 64.9923C25.8833 64.9923 19.52 63.0196 14.0931 59.2814C13.479 58.8592 13.3178 58.0149 13.7476 57.3931C14.1698 56.7791 15.0142 56.6179 15.6359 57.0477C20.6099 60.4712 26.4437 62.2827 32.5 62.2827C48.9266 62.2827 62.2827 48.9189 62.2827 32.5C62.2827 16.0735 48.9189 2.71729 32.5 2.71729C16.0811 2.71729 2.71729 16.0811 2.71729 32.5C2.71729 33.2522 2.11089 33.8586 1.35864 33.8586C0.606401 33.8586 0 33.2522 0 32.5C0 14.5843 14.5766 0 32.5 0C50.4157 0 65 14.5766 65 32.5C65 50.4234 50.4157 64.9923 32.5 64.9923Z" fill="#FDD121"/>
<path d="M50.7765 20.9093C50.7688 20.9016 50.7611 20.894 50.7611 20.894C50.7995 20.9247 50.8302 20.963 50.8686 21.0014C50.8379 20.9707 50.8072 20.94 50.7765 20.9093Z" fill="#F79D1E"/>
<path d="M51.1756 21.6692C51.1756 21.6462 51.1679 21.6155 51.1603 21.5925C51.1603 21.5618 51.1449 21.5387 51.1372 21.508C51.1296 21.4773 51.1219 21.439 51.1065 21.4083C51.0912 21.3775 51.0835 21.3468 51.0682 21.3161C51.0528 21.2778 51.0298 21.2471 51.0144 21.2087C50.976 21.1396 50.93 21.0705 50.8686 21.0091C50.8379 20.9707 50.7995 20.9323 50.7611 20.9016C50.7227 20.8709 50.692 20.8326 50.646 20.8095L50.6383 20.8019C50.5999 20.7711 50.5692 20.7481 50.5308 20.7328C50.5001 20.7097 50.4618 20.6944 50.4311 20.679C50.4003 20.6637 50.3773 20.6483 50.3466 20.6407C50.3466 20.6407 50.3466 20.6407 50.3389 20.6407C50.3082 20.6253 50.2699 20.61 50.2315 20.6023C50.1701 20.5869 50.1087 20.5716 50.0473 20.5639C50.0166 20.5562 49.9935 20.5562 49.9705 20.5485C49.8861 20.5409 49.8016 20.5409 49.7249 20.5485C49.6865 20.5485 49.6481 20.5562 49.6097 20.5639C49.579 20.5716 49.5483 20.5792 49.5176 20.5869C49.4639 20.6023 49.4025 20.6176 49.3487 20.6407C49.3334 20.6483 49.3104 20.656 49.295 20.6637L19.1592 34.1734C18.6526 34.4036 18.3302 34.9179 18.3609 35.4783C18.3916 36.0386 18.7524 36.5145 19.282 36.6988L28.8616 39.915V48.9266C28.8616 49.4869 29.1994 49.9858 29.7213 50.1854C29.8825 50.2468 30.0514 50.2775 30.2203 50.2775C30.5887 50.2775 30.9495 50.124 31.2181 49.84L34.7644 46.0174L38.1879 49.8246C38.4489 50.1163 38.8173 50.2699 39.1934 50.2699C39.2702 50.2699 39.3546 50.2622 39.4314 50.2468C39.892 50.1624 40.2758 49.8477 40.4523 49.4101L51.0758 22.4522C51.0912 22.4138 51.1142 22.3677 51.1219 22.3294C51.1219 22.3294 51.1219 22.3217 51.1219 22.314C51.1372 22.2833 51.1449 22.2449 51.1526 22.2142C51.1603 22.1912 51.1679 22.1605 51.1679 22.1375C51.1756 22.0991 51.1833 22.0607 51.1833 22.0223C51.191 21.9379 51.191 21.8611 51.1833 21.7844C51.1833 21.7383 51.1833 21.6999 51.1756 21.6692ZM23.427 35.2173L42.0336 26.8812L29.9132 37.3973L23.427 35.2173ZM31.5712 45.457V42.4634L32.9375 43.9832L31.5712 45.457ZM38.7329 46.3705L35.8007 43.1082L32.1469 39.0476L46.5547 26.5435L38.7329 46.3705Z" fill="#00A7B9"/>
<path d="M25.4228 53.8238C24.7857 53.8238 24.2176 53.3709 24.0948 52.7185C23.9567 51.9816 24.4402 51.2754 25.1771 51.1372C26.981 50.7918 28.1401 50.3619 28.1477 50.3619C28.8463 50.101 29.6292 50.4464 29.8979 51.1449C30.1665 51.8434 29.8134 52.6264 29.1149 52.895C29.0612 52.918 27.7409 53.417 25.6838 53.8008C25.584 53.8161 25.4995 53.8238 25.4228 53.8238Z" fill="#FDD121"/>
<path d="M20.2415 54.2613C20.2338 54.2613 20.2185 54.2613 20.2108 54.2613C18.2995 54.2153 16.4573 53.9466 14.7378 53.4554C14.0163 53.2481 13.6018 52.5035 13.8014 51.782C14.0086 51.0605 14.7532 50.646 15.4747 50.8455C16.9792 51.2754 18.5912 51.5133 20.2722 51.5517C21.0245 51.5671 21.6155 52.1888 21.5925 52.9411C21.5771 53.6703 20.9784 54.2613 20.2415 54.2613ZM10.3779 51.3752C10.1246 51.3752 9.87129 51.3061 9.64869 51.1603C8.1135 50.1701 6.70112 48.9419 5.44994 47.4988C4.95868 46.9308 5.02009 46.0788 5.58043 45.5875C6.14845 45.0962 7.00048 45.1576 7.49174 45.718C8.57405 46.9615 9.79453 48.0285 11.1148 48.8728C11.7442 49.2796 11.9284 50.1163 11.5216 50.7457C11.2606 51.1603 10.8231 51.3752 10.3779 51.3752Z" fill="#FDD121"/>
<path d="M3.55397 43.6685C3.07039 43.6685 2.59448 43.4075 2.35652 42.947C1.83456 41.9568 1.35097 40.8975 0.913441 39.7922C0.637106 39.0936 0.982524 38.3107 1.68104 38.0344C2.37955 37.758 3.1625 38.1034 3.43883 38.802C3.83798 39.8152 4.27551 40.7824 4.75142 41.6728C5.10451 42.3329 4.85121 43.1542 4.19107 43.5073C3.98382 43.6148 3.76122 43.6685 3.55397 43.6685Z" fill="#FDD121"/>
</svg>
